{"accessors":[{"name":"chicken_lp_1_positions","componentType":5126,"count":11751,"min":[-0.2589559853076935,0.003143999958410859,-0.23509599268436432],"max":[0.2580749988555908,1.3274849653244019,1.029634952545166],"type":"VEC3","bufferView":0,"byteOffset":0},{"name":"chicken_lp_1_normals","componentType":5126,"count":11751,"min":[-0.9999889731407166,-0.9999369978904724,-0.9971939921379089],"max":[0.9998019933700562,0.9875410199165344,0.9799230098724365],"type":"VEC3","bufferView":0,"byteOffset":284724},{"name":"chicken_lp_1_texcoords","componentType":5126,"count":11751,"min":[0.0008319999906234443,0.0008340000058524311],"max":[0.9996910095214844,0.9906119704246521],"type":"VEC2","bufferView":1,"byteOffset":0},{"name":"chicken_lp_1_0_indices","componentType":5123,"count":11751,"min":[0],"max":[11750],"type":"SCALAR","bufferView":2,"byteOffset":0},{"name":"chicken_lp Right_Leg_1_positions","componentType":5126,"count":912,"min":[-0.2549639940261841,-0.007172999903559685,0.24805599451065063],"max":[-0.06163499876856804,0.18713699281215668,0.5869699716567993],"type":"VEC3","bufferView":0,"byteOffset":141012},{"name":"chicken_lp Right_Leg_1_normals","componentType":5126,"count":912,"min":[-0.9740380048751831,-0.9999499917030334,-0.8963680267333984],"max":[0.9962530136108398,0.9115920066833496,0.9500139951705933],"type":"VEC3","bufferView":0,"byteOffset":425736},{"name":"chicken_lp Right_Leg_1_texcoords","componentType":5126,"count":912,"min":[0.03429799899458885,0.0027469999622553587],"max":[0.9993119835853577,0.9367809891700745],"type":"VEC2","bufferView":1,"byteOffset":94008},{"name":"chicken_lp Right_Leg_1_0_indices","componentType":5123,"count":912,"min":[0],"max":[911],"type":"SCALAR","bufferView":2,"byteOffset":23504},{"name":"chicken_lp Left_Leg_1_positions","componentType":5126,"count":867,"min":[0.06125799939036369,0.003157000057399273,0.24027900397777557],"max":[0.25603699684143066,0.2124280035495758,0.5781630277633667],"type":"VEC3","bufferView":0,"byteOffset":151956},{"name":"chicken_lp Left_Leg_1_normals","componentType":5126,"count":867,"min":[-0.9978229999542236,-0.9998819828033447,-0.8894619941711426],"max":[0.9908159971237183,0.9325699806213379,0.9388909935951233],"type":"VEC3","bufferView":0,"byteOffset":436680},{"name":"chicken_lp Left_Leg_1_texcoords","componentType":5126,"count":867,"min":[0.027379000559449196,0.003046999918296933],"max":[0.997825026512146,0.9601820111274719],"type":"VEC2","bufferView":1,"byteOffset":101304},{"name":"chicken_lp Left_Leg_1_0_indices","componentType":5123,"count":867,"min":[0],"max":[866],"type":"SCALAR","bufferView":2,"byteOffset":25328},{"name":"chicken_lp Neck_1_positions","componentType":5126,"count":6675,"min":[-0.24967199563980103,0.3406220078468323,0.2091049998998642],"max":[0.24851499497890472,1.3274849653244019,1.029634952545166],"type":"VEC3","bufferView":0,"byteOffset":162360},{"name":"chicken_lp Neck_1_normals","componentType":5126,"count":6675,"min":[-0.9999889731407166,-0.9929410219192505,-0.9971939921379089],"max":[0.9998019933700562,0.9875410199165344,0.9799230098724365],"type":"VEC3","bufferView":0,"byteOffset":447084},{"name":"chicken_lp Neck_1_texcoords","componentType":5126,"count":6675,"min":[0.0008319999906234443,0.0008340000058524311],"max":[0.9996910095214844,0.9906119704246521],"type":"VEC2","bufferView":1,"byteOffset":108240},{"name":"chicken_lp Neck_1_0_indices","componentType":5123,"count":6675,"min":[0],"max":[6674],"type":"SCALAR","bufferView":2,"byteOffset":27064},{"name":"chicken_lp Body_1_positions","componentType":5126,"count":3522,"min":[-0.24437600374221802,0.1755400002002716,-0.23509599268436432],"max":[0.25380900502204895,0.9952560067176819,0.6899570226669312],"type":"VEC3","bufferView":0,"byteOffset":242460},{"name":"chicken_lp Body_1_normals","componentType":5126,"count":3522,"min":[-0.9999399781227112,-0.9923650026321411,-0.9687830209732056],"max":[0.9991769790649414,0.9827939867973328,0.8936110138893127],"type":"VEC3","bufferView":0,"byteOffset":527184},{"name":"chicken_lp Body_1_texcoords","componentType":5126,"count":3522,"min":[0.009557000361382961,0.0038689998909831047],"max":[0.9986339807510376,0.9906119704246521],"type":"VEC2","bufferView":1,"byteOffset":161640},{"name":"chicken_lp Body_1_0_indices","componentType":5123,"count":3522,"min":[0],"max":[3521],"type":"SCALAR","bufferView":2,"byteOffset":40416}],"asset":{"generator":"obj2gltf","version":"2.0"},"buffers":[{"name":"Chicken 2","byteLength":1153308,"uri":"data:application/octet-stream;base64,"}],"bufferViews":[{"name":"bufferView_0","buffer":0,"byteLength":569448,"byteOffset":0,"byteStride":12,"target":34962},{"name":"bufferView_1","buffer":0,"byteLength":189816,"byteOffset":569448,"byteStride":8,"target":34962},{"name":"bufferView_2","buffer":0,"byteLength":47460,"byteOffset":759264,"target":34963},{"buffer":0,"byteOffset":806724,"byteLength":8741},{"buffer":0,"byteOffset":815465,"byteLength":337842}],"images":[{"name":"Yellow Skin Texture","mimeType":"image/jpeg","bufferView":3},{"name":"White Page","mimeType":"image/jpeg","bufferView":4}],"materials":[{"name":"chicken_lpSG","pbrMetallicRoughness":{"baseColorFactor":[0,0,0,1],"metallicFactor":0,"roughnessFactor":1},"emissiveFactor":[0,0,0],"alphaMode":"OPAQUE","doubleSided":false},{"name":"lambert3SG","pbrMetallicRoughness":{"baseColorTexture":{"index":0},"baseColorFactor":[1,1,1,1],"metallicFactor":0,"roughnessFactor":1},"emissiveFactor":[0,0,0],"alphaMode":"OPAQUE","doubleSided":false},{"name":"lambert5SG","pbrMetallicRoughness":{"baseColorTexture":{"index":1},"baseColorFactor":[1,1,1,1],"metallicFactor":0,"roughnessFactor":1},"emissiveFactor":[0,0,0],"alphaMode":"OPAQUE","doubleSided":false},{"name":"lambert4SG","pbrMetallicRoughness":{"baseColorTexture":{"index":1},"baseColorFactor":[1,1,1,1],"metallicFactor":0,"roughnessFactor":1},"emissiveFactor":[0,0,0],"alphaMode":"OPAQUE","doubleSided":false}],"meshes":[{"name":"chicken_lp_1","primitives":[{"attributes":{"POSITION":0,"NORMAL":1,"TEXCOORD_0":2},"indices":3,"material":0,"mode":4}]},{"name":"chicken_lp Right_Leg_1","primitives":[{"attributes":{"POSITION":4,"NORMAL":5,"TEXCOORD_0":6},"indices":7,"material":1,"mode":4}]},{"name":"chicken_lp Left_Leg_1","primitives":[{"attributes":{"POSITION":8,"NORMAL":9,"TEXCOORD_0":10},"indices":11,"material":1,"mode":4}]},{"name":"chicken_lp Neck_1","primitives":[{"attributes":{"POSITION":12,"NORMAL":13,"TEXCOORD_0":14},"indices":15,"material":2,"mode":4}]},{"name":"chicken_lp Body_1","primitives":[{"attributes":{"POSITION":16,"NORMAL":17,"TEXCOORD_0":18},"indices":19,"material":3,"mode":4}]}],"nodes":[{"name":"chicken_lp","mesh":0},{"name":"chicken_lp Right_Leg","mesh":1},{"name":"chicken_lp Left_Leg","mesh":2},{"name":"chicken_lp Neck","mesh":3},{"name":"chicken_lp Body","mesh":4}],"samplers":[{"magFilter":9729,"minFilter":9986,"wrapS":10497,"wrapT":10497}],"scene":0,"scenes":[{"nodes":[0,1,2,3,4]}],"textures":[{"name":"Yellow Skin Texture","sampler":0,"source":0},{"name":"White Page","sampler":0,"source":1}]}
