# This file uses centimeters as units for non-parametric coordinates.

mtllib Christmas Tree.mtl
g default
v -0.866025 0.000000 0.500000
v 0.866025 0.000000 0.500000
v -0.000000 0.000000 -1.000000
v 0.000000 0.000000 1.000000
v 0.866025 0.000000 -0.500000
v -0.866026 0.000000 -0.500000
v -0.000000 0.000000 0.000000
v -1.000000 0.000000 0.000000
v -0.500000 0.000000 0.866025
v 0.000000 0.000000 0.500000
v -0.433013 0.000000 -0.250000
v -0.433013 0.000000 0.250000
v 0.500000 0.000000 0.866025
v 1.000000 0.000000 -0.000000
v 0.433013 0.000000 -0.250000
v 0.433013 0.000000 0.250000
v 0.500000 0.000000 -0.866026
v -0.500000 0.000000 -0.866025
v -0.000000 0.000000 -0.500000
v -0.649519 0.000000 -0.375000
v -0.965926 0.000000 -0.258819
v -0.716506 0.000000 0.125000
v -0.433013 0.000000 0.000000
v -0.683013 0.000000 -0.125000
v -0.965926 0.000000 0.258819
v -0.707107 0.000000 0.707107
v -0.466506 0.000000 0.558013
v -0.699760 0.000000 0.404006
v -0.258819 0.000000 0.965926
v 0.000000 0.000000 0.750000
v -0.216506 0.000000 0.375000
v -0.233253 0.000000 0.654006
v -0.000000 0.000000 0.250000
v -0.216506 0.000000 -0.125000
v -0.216506 0.000000 0.125000
v 0.258819 0.000000 0.965926
v 0.466506 0.000000 0.558013
v 0.216506 0.000000 0.375000
v 0.233253 0.000000 0.654006
v 0.707107 0.000000 0.707107
v 0.965926 0.000000 0.258819
v 0.716506 0.000000 0.125000
v 0.699760 0.000000 0.404006
v 0.965926 0.000000 -0.258819
v 0.649519 0.000000 -0.375000
v 0.433013 0.000000 -0.000000
v 0.683013 0.000000 -0.125000
v 0.216506 0.000000 -0.125000
v 0.216506 0.000000 0.125000
v 0.707107 0.000000 -0.707107
v 0.250000 0.000000 -0.683013
v 0.216506 0.000000 -0.375000
v 0.449759 0.000000 -0.529006
v 0.258819 0.000000 -0.965926
v -0.258819 0.000000 -0.965926
v -0.250000 0.000000 -0.683013
v -0.000000 0.000000 -0.808013
v -0.707107 0.000000 -0.707107
v -0.216506 0.000000 -0.375000
v -0.449760 0.000000 -0.529006
v -0.000000 0.000000 -0.250000
vt 0.066987 0.250000
vt 0.933013 0.250000
vt 0.500000 1.000000
vt 0.500000 0.000000
vt 0.933013 0.750000
vt 0.066987 0.750000
vt 0.500000 0.500000
vt 0.000000 0.500000
vt 0.250000 0.066987
vt 0.500000 0.250000
vt 0.283494 0.625000
vt 0.283494 0.375000
vt 0.750000 0.066987
vt 1.000000 0.500000
vt 0.716506 0.625000
vt 0.716506 0.375000
vt 0.750000 0.933013
vt 0.250000 0.933013
vt 0.500000 0.750000
vt 0.175240 0.687500
vt 0.017037 0.629409
vt 0.141747 0.437500
vt 0.283494 0.500000
vt 0.158494 0.562500
vt 0.017037 0.370590
vt 0.146447 0.146447
vt 0.266747 0.220994
vt 0.150120 0.297997
vt 0.370591 0.017037
vt 0.500000 0.125000
vt 0.391747 0.312500
vt 0.383373 0.172997
vt 0.500000 0.375000
vt 0.391747 0.562500
vt 0.391747 0.437500
vt 0.629410 0.017037
vt 0.733253 0.220994
vt 0.608253 0.312500
vt 0.616627 0.172997
vt 0.853553 0.146447
vt 0.982963 0.370591
vt 0.858253 0.437500
vt 0.849880 0.297997
vt 0.982963 0.629410
vt 0.824759 0.687500
vt 0.716506 0.500000
vt 0.841506 0.562500
vt 0.608253 0.562500
vt 0.608253 0.437500
vt 0.853553 0.853553
vt 0.625000 0.841506
vt 0.608253 0.687500
vt 0.724880 0.764503
vt 0.629409 0.982963
vt 0.370590 0.982963
vt 0.375000 0.841506
vt 0.500000 0.904006
vt 0.146447 0.853553
vt 0.391747 0.687500
vt 0.275120 0.764503
vt 0.500000 0.625000
vn 0.000000 1.000000 0.000000
vn 0.000000 1.000000 0.000000
vn 0.000000 1.000000 0.000000
vn 0.000000 1.000000 0.000000
vn 0.000000 1.000000 0.000000
vn 0.000000 1.000000 0.000000
vn 0.000000 1.000000 0.000000
vn 0.000000 1.000000 0.000000
vn 0.000000 1.000000 0.000000
vn 0.000000 1.000000 0.000000
vn 0.000000 1.000000 0.000000
vn 0.000000 1.000000 0.000000
vn 0.000000 1.000000 0.000000
vn 0.000000 1.000000 0.000000
vn 0.000000 1.000000 0.000000
vn 0.000000 1.000000 0.000000
vn 0.000000 1.000000 0.000000
vn 0.000000 1.000000 0.000000
vn 0.000000 1.000000 0.000000
vn 0.000000 1.000000 0.000000
vn 0.000000 1.000000 0.000000
vn 0.000000 1.000000 0.000000
vn 0.000000 1.000000 0.000000
vn 0.000000 1.000000 0.000000
vn 0.000000 1.000000 0.000000
vn 0.000000 1.000000 0.000000
vn 0.000000 1.000000 0.000000
vn 0.000000 1.000000 0.000000
vn 0.000000 1.000000 0.000000
vn 0.000000 1.000000 0.000000
vn 0.000000 1.000000 0.000000
vn 0.000000 1.000000 0.000000
vn 0.000000 1.000000 0.000000
vn 0.000000 1.000000 0.000000
vn 0.000000 1.000000 0.000000
vn 0.000000 1.000000 0.000000
vn 0.000000 1.000000 0.000000
vn 0.000000 1.000000 0.000000
vn 0.000000 1.000000 0.000000
vn 0.000000 1.000000 0.000000
vn 0.000000 1.000000 0.000000
vn 0.000000 1.000000 0.000000
vn 0.000000 1.000000 0.000000
vn 0.000000 1.000000 0.000000
vn 0.000000 1.000000 0.000000
vn 0.000000 1.000000 0.000000
vn 0.000000 1.000000 0.000000
vn 0.000000 1.000000 0.000000
vn 0.000000 1.000000 0.000000
vn 0.000000 1.000000 0.000000
vn 0.000000 1.000000 0.000000
vn 0.000000 1.000000 0.000000
vn 0.000000 1.000000 0.000000
vn 0.000000 1.000000 0.000000
vn 0.000000 1.000000 0.000000
vn 0.000000 1.000000 0.000000
vn 0.000000 1.000000 0.000000
vn 0.000000 1.000000 0.000000
vn 0.000000 1.000000 0.000000
vn 0.000000 1.000000 0.000000
vn 0.000000 1.000000 0.000000
s 1
g pDisc1
usemtl lambert2SG
f 23/23/1 11/11/2 20/20/3 24/24/4
f 20/20/3 6/6/5 21/21/6 24/24/4
f 21/21/6 8/8/7 22/22/8 24/24/4
f 22/22/8 12/12/9 23/23/1 24/24/4
f 22/22/8 8/8/7 25/25/10 28/28/11
f 25/25/10 1/1/12 26/26/13 28/28/11
f 26/26/13 9/9/14 27/27/15 28/28/11
f 27/27/15 12/12/9 22/22/8 28/28/11
f 27/27/15 9/9/14 29/29/16 32/32/17
f 29/29/16 4/4/18 30/30/19 32/32/17
f 30/30/19 10/10/20 31/31/21 32/32/17
f 31/31/21 12/12/9 27/27/15 32/32/17
f 31/31/21 10/10/20 33/33/22 35/35/23
f 33/33/22 7/7/24 34/34/25 35/35/23
f 34/34/25 11/11/2 23/23/1 35/35/23
f 23/23/1 12/12/9 31/31/21 35/35/23
f 38/38/26 10/10/20 30/30/19 39/39/27
f 30/30/19 4/4/18 36/36/28 39/39/27
f 36/36/28 13/13/29 37/37/30 39/39/27
f 37/37/30 16/16/31 38/38/26 39/39/27
f 37/37/30 13/13/29 40/40/32 43/43/33
f 40/40/32 2/2/34 41/41/35 43/43/33
f 41/41/35 14/14/36 42/42/37 43/43/33
f 42/42/37 16/16/31 37/37/30 43/43/33
f 42/42/37 14/14/36 44/44/38 47/47/39
f 44/44/38 5/5/40 45/45/41 47/47/39
f 45/45/41 15/15/42 46/46/43 47/47/39
f 46/46/43 16/16/31 42/42/37 47/47/39
f 46/46/43 15/15/42 48/48/44 49/49/45
f 48/48/44 7/7/24 33/33/22 49/49/45
f 33/33/22 10/10/20 38/38/26 49/49/45
f 38/38/26 16/16/31 46/46/43 49/49/45
f 52/52/46 15/15/42 45/45/41 53/53/47
f 45/45/41 5/5/40 50/50/48 53/53/47
f 50/50/48 17/17/49 51/51/50 53/53/47
f 51/51/50 19/19/51 52/52/46 53/53/47
f 51/51/50 17/17/49 54/54/52 57/57/53
f 54/54/52 3/3/54 55/55/55 57/57/53
f 55/55/55 18/18/56 56/56/57 57/57/53
f 56/56/57 19/19/51 51/51/50 57/57/53
f 56/56/57 18/18/56 58/58/58 60/60/59
f 58/58/58 6/6/5 20/20/3 60/60/59
f 20/20/3 11/11/2 59/59/60 60/60/59
f 59/59/60 19/19/51 56/56/57 60/60/59
f 59/59/60 11/11/2 34/34/25 61/61/61
f 34/34/25 7/7/24 48/48/44 61/61/61
f 48/48/44 15/15/42 52/52/46 61/61/61
f 52/52/46 19/19/51 59/59/60 61/61/61
g default
v 0.101766 0.000127 -0.035284
v 0.086568 0.000127 -0.067114
v 0.062895 0.000127 -0.092374
v 0.033066 0.000127 -0.108593
v 0.000000 0.000127 -0.114181
v -0.033066 0.000127 -0.108593
v -0.062895 0.000127 -0.092374
v -0.086568 0.000127 -0.067114
v -0.101766 0.000127 -0.035284
v -0.107004 0.000127 0.000000
v -0.101766 0.000127 0.035284
v -0.086568 0.000127 0.067114
v -0.062895 0.000127 0.092374
v -0.033066 0.000127 0.108593
v -0.000000 0.000127 0.114181
v 0.033066 0.000127 0.108593
v 0.062895 0.000127 0.092374
v 0.086568 0.000127 0.067114
v 0.101766 0.000127 0.035284
v 0.107003 0.000127 0.000000
v 0.101766 0.278443 -0.035284
v 0.086568 0.278443 -0.067114
v 0.062895 0.278443 -0.092374
v 0.033066 0.278443 -0.108593
v 0.000000 0.278443 -0.114181
v -0.033066 0.278443 -0.108593
v -0.062895 0.278443 -0.092374
v -0.086568 0.278443 -0.067114
v -0.101766 0.278443 -0.035284
v -0.107004 0.278443 0.000000
v -0.101766 0.278443 0.035284
v -0.086568 0.278443 0.067114
v -0.062895 0.278443 0.092374
v -0.033066 0.278443 0.108593
v -0.000000 0.278443 0.114181
v 0.033066 0.278443 0.108593
v 0.062895 0.278443 0.092374
v 0.086568 0.278443 0.067114
v 0.101766 0.278443 0.035284
v 0.107003 0.278443 0.000000
v 0.000000 0.000127 0.000000
v 0.000000 0.278443 0.000000
vt 0.648603 0.107966
vt 0.626409 0.064408
vt 0.591842 0.029841
vt 0.548284 0.007647
vt 0.500000 -0.000000
vt 0.451716 0.007647
vt 0.408159 0.029841
vt 0.373591 0.064409
vt 0.351397 0.107966
vt 0.343750 0.156250
vt 0.351397 0.204534
vt 0.373591 0.248091
vt 0.408159 0.282659
vt 0.451716 0.304853
vt 0.500000 0.312500
vt 0.548284 0.304853
vt 0.591841 0.282659
vt 0.626409 0.248091
vt 0.648603 0.204534
vt 0.656250 0.156250
vt 0.375000 0.312500
vt 0.387500 0.312500
vt 0.400000 0.312500
vt 0.412500 0.312500
vt 0.425000 0.312500
vt 0.437500 0.312500
vt 0.450000 0.312500
vt 0.462500 0.312500
vt 0.475000 0.312500
vt 0.487500 0.312500
vt 0.500000 0.312500
vt 0.512500 0.312500
vt 0.525000 0.312500
vt 0.537500 0.312500
vt 0.550000 0.312500
vt 0.562500 0.312500
vt 0.575000 0.312500
vt 0.587500 0.312500
vt 0.600000 0.312500
vt 0.612500 0.312500
vt 0.625000 0.312500
vt 0.375000 0.688440
vt 0.387500 0.688440
vt 0.400000 0.688440
vt 0.412500 0.688440
vt 0.425000 0.688440
vt 0.437500 0.688440
vt 0.450000 0.688440
vt 0.462500 0.688440
vt 0.475000 0.688440
vt 0.487500 0.688440
vt 0.500000 0.688440
vt 0.512500 0.688440
vt 0.525000 0.688440
vt 0.537500 0.688440
vt 0.550000 0.688440
vt 0.562500 0.688440
vt 0.575000 0.688440
vt 0.587500 0.688440
vt 0.600000 0.688440
vt 0.612500 0.688440
vt 0.625000 0.688440
vt 0.648603 0.795466
vt 0.626409 0.751908
vt 0.591842 0.717341
vt 0.548284 0.695147
vt 0.500000 0.687500
vt 0.451716 0.695147
vt 0.408159 0.717341
vt 0.373591 0.751909
vt 0.351397 0.795466
vt 0.343750 0.843750
vt 0.351397 0.892034
vt 0.373591 0.935591
vt 0.408159 0.970159
vt 0.451716 0.992353
vt 0.500000 1.000000
vt 0.548284 0.992353
vt 0.591841 0.970159
vt 0.626409 0.935591
vt 0.648603 0.892034
vt 0.656250 0.843750
vt 0.500000 0.150000
vt 0.500000 0.837500
vn 0.956635 0.000000 -0.291290
vn 0.826591 0.000000 -0.562803
vn 0.826591 0.000000 -0.562803
vn 0.956635 0.000000 -0.291290
vn 0.612708 0.000000 -0.790309
vn 0.612708 0.000000 -0.790309
vn 0.327583 0.000000 -0.944822
vn 0.327583 0.000000 -0.944822
vn -0.000000 0.000000 -1.000000
vn -0.000000 0.000000 -1.000000
vn -0.327583 0.000000 -0.944822
vn -0.327583 0.000000 -0.944822
vn -0.612708 0.000000 -0.790309
vn -0.612708 0.000000 -0.790309
vn -0.826591 0.000000 -0.562803
vn -0.826591 0.000000 -0.562803
vn -0.956635 0.000000 -0.291291
vn -0.956635 0.000000 -0.291291
vn -1.000000 0.000000 0.000000
vn -1.000000 0.000000 0.000000
vn -0.956635 0.000000 0.291291
vn -0.956635 0.000000 0.291291
vn -0.826591 0.000000 0.562803
vn -0.826591 0.000000 0.562803
vn -0.612708 0.000000 0.790309
vn -0.612708 0.000000 0.790309
vn -0.327583 0.000000 0.944822
vn -0.327583 0.000000 0.944822
vn 0.000000 0.000000 1.000000
vn 0.000000 0.000000 1.000000
vn 0.327583 0.000000 0.944822
vn 0.327583 0.000000 0.944822
vn 0.612708 0.000000 0.790309
vn 0.612708 0.000000 0.790309
vn 0.826591 0.000000 0.562803
vn 0.826591 0.000000 0.562803
vn 0.956635 0.000000 0.291291
vn 0.956635 0.000000 0.291291
vn 1.000000 0.000000 0.000001
vn 1.000000 0.000000 0.000001
vn 0.000000 -1.000000 0.000000
vn 0.000000 -1.000000 0.000000
vn 0.000000 -1.000000 0.000000
vn 0.000000 -1.000000 0.000000
vn 0.000000 -1.000000 0.000000
vn 0.000000 -1.000000 0.000000
vn 0.000000 -1.000000 0.000000
vn 0.000000 -1.000000 0.000000
vn 0.000000 -1.000000 0.000000
vn 0.000000 -1.000000 0.000000
vn 0.000000 -1.000000 0.000000
vn 0.000000 -1.000000 0.000000
vn 0.000000 -1.000000 0.000000
vn 0.000000 -1.000000 0.000000
vn 0.000000 -1.000000 0.000000
vn 0.000000 -1.000000 0.000000
vn 0.000000 -1.000000 0.000000
vn 0.000000 -1.000000 0.000000
vn 0.000000 -1.000000 0.000000
vn 0.000000 -1.000000 0.000000
vn 0.000000 -1.000000 0.000000
vn 0.000000 1.000000 0.000000
vn 0.000000 1.000000 0.000000
vn 0.000000 1.000000 0.000000
vn 0.000000 1.000000 0.000000
vn 0.000000 1.000000 0.000000
vn 0.000000 1.000000 0.000000
vn 0.000000 1.000000 0.000000
vn 0.000000 1.000000 0.000000
vn 0.000000 1.000000 0.000000
vn 0.000000 1.000000 0.000000
vn 0.000000 1.000000 0.000000
vn 0.000000 1.000000 0.000000
vn 0.000000 1.000000 0.000000
vn 0.000000 1.000000 0.000000
vn 0.000000 1.000000 0.000000
vn 0.000000 1.000000 0.000000
vn 0.000000 1.000000 0.000000
vn 0.000000 1.000000 0.000000
vn 0.000000 1.000000 0.000000
vn 0.000000 1.000000 0.000000
vn 0.000000 1.000000 0.000000
s 1
g pCylinder1
usemtl lambert3SG
f 62/82/62 63/83/63 83/104/64 82/103/65
f 63/83/63 64/84/66 84/105/67 83/104/64
f 64/84/66 65/85/68 85/106/69 84/105/67
f 65/85/68 66/86/70 86/107/71 85/106/69
f 66/86/70 67/87/72 87/108/73 86/107/71
f 67/87/72 68/88/74 88/109/75 87/108/73
f 68/88/74 69/89/76 89/110/77 88/109/75
f 69/89/76 70/90/78 90/111/79 89/110/77
f 70/90/78 71/91/80 91/112/81 90/111/79
f 71/91/80 72/92/82 92/113/83 91/112/81
f 72/92/82 73/93/84 93/114/85 92/113/83
f 73/93/84 74/94/86 94/115/87 93/114/85
f 74/94/86 75/95/88 95/116/89 94/115/87
f 75/95/88 76/96/90 96/117/91 95/116/89
f 76/96/90 77/97/92 97/118/93 96/117/91
f 77/97/92 78/98/94 98/119/95 97/118/93
f 78/98/94 79/99/96 99/120/97 98/119/95
f 79/99/96 80/100/98 100/121/99 99/120/97
f 80/100/98 81/101/100 101/122/101 100/121/99
f 81/101/100 62/102/62 82/123/65 101/122/101
s 2
f 63/63/102 62/62/103 102/144/104
f 64/64/105 63/63/102 102/144/104
f 65/65/106 64/64/105 102/144/104
f 66/66/107 65/65/106 102/144/104
f 67/67/108 66/66/107 102/144/104
f 68/68/109 67/67/108 102/144/104
f 69/69/110 68/68/109 102/144/104
f 70/70/111 69/69/110 102/144/104
f 71/71/112 70/70/111 102/144/104
f 72/72/113 71/71/112 102/144/104
f 73/73/114 72/72/113 102/144/104
f 74/74/115 73/73/114 102/144/104
f 75/75/116 74/74/115 102/144/104
f 76/76/117 75/75/116 102/144/104
f 77/77/118 76/76/117 102/144/104
f 78/78/119 77/77/118 102/144/104
f 79/79/120 78/78/119 102/144/104
f 80/80/121 79/79/120 102/144/104
f 81/81/122 80/80/121 102/144/104
f 62/62/103 81/81/122 102/144/104
s 3
f 82/142/123 83/141/124 103/145/125
f 83/141/124 84/140/126 103/145/125
f 84/140/126 85/139/127 103/145/125
f 85/139/127 86/138/128 103/145/125
f 86/138/128 87/137/129 103/145/125
f 87/137/129 88/136/130 103/145/125
f 88/136/130 89/135/131 103/145/125
f 89/135/131 90/134/132 103/145/125
f 90/134/132 91/133/133 103/145/125
f 91/133/133 92/132/134 103/145/125
f 92/132/134 93/131/135 103/145/125
f 93/131/135 94/130/136 103/145/125
f 94/130/136 95/129/137 103/145/125
f 95/129/137 96/128/138 103/145/125
f 96/128/138 97/127/139 103/145/125
f 97/127/139 98/126/140 103/145/125
f 98/126/140 99/125/141 103/145/125
f 99/125/141 100/124/142 103/145/125
f 100/124/142 101/143/143 103/145/125
f 101/143/143 82/142/123 103/145/125
g default
v 0.510197 0.243381 -0.165773
v 0.434000 0.243381 -0.315319
v 0.315319 0.243381 -0.434000
v 0.165773 0.243381 -0.510197
v 0.000000 0.243381 -0.536453
v -0.165773 0.243381 -0.510197
v -0.315319 0.243381 -0.434000
v -0.434000 0.243381 -0.315319
v -0.510197 0.243381 -0.165773
v -0.536453 0.243381 0.000000
v -0.510197 0.243381 0.165773
v -0.434000 0.243381 0.315319
v -0.315319 0.243381 0.433999
v -0.165773 0.243381 0.510197
v -0.000000 0.243381 0.536453
v 0.165773 0.243381 0.510197
v 0.315319 0.243381 0.433999
v 0.433999 0.243381 0.315319
v 0.510197 0.243381 0.165773
v 0.536453 0.243381 0.000000
v 0.000000 1.316287 0.000000
vt 0.737764 0.172746
vt 0.702254 0.103054
vt 0.646946 0.047746
vt 0.577254 0.012236
vt 0.500000 -0.000000
vt 0.422746 0.012236
vt 0.353054 0.047746
vt 0.297746 0.103054
vt 0.262236 0.172746
vt 0.250000 0.250000
vt 0.262236 0.327254
vt 0.297746 0.396946
vt 0.353054 0.452254
vt 0.422746 0.487764
vt 0.500000 0.500000
vt 0.577254 0.487764
vt 0.646946 0.452254
vt 0.702254 0.396946
vt 0.737764 0.327254
vt 0.750000 0.250000
vt 0.250000 0.500000
vt 0.275000 0.500000
vt 0.300000 0.500000
vt 0.325000 0.500000
vt 0.350000 0.500000
vt 0.375000 0.500000
vt 0.400000 0.500000
vt 0.425000 0.500000
vt 0.450000 0.500000
vt 0.475000 0.500000
vt 0.500000 0.500000
vt 0.525000 0.500000
vt 0.550000 0.500000
vt 0.575000 0.500000
vt 0.600000 0.500000
vt 0.625000 0.500000
vt 0.650000 0.500000
vt 0.675000 0.500000
vt 0.700000 0.500000
vt 0.725000 0.500000
vt 0.750000 0.500000
vt 0.500000 1.000000
vn 0.000000 -1.000000 -0.000000
vn 0.000000 -1.000000 -0.000000
vn 0.000000 -1.000000 -0.000000
vn 0.000000 -1.000000 -0.000000
vn 0.000000 -1.000000 -0.000000
vn 0.000000 -1.000000 -0.000000
vn 0.000000 -1.000000 -0.000000
vn 0.000000 -1.000000 -0.000000
vn 0.000000 -1.000000 -0.000000
vn 0.000000 -1.000000 -0.000000
vn 0.000000 -1.000000 -0.000000
vn 0.000000 -1.000000 -0.000000
vn 0.000000 -1.000000 -0.000000
vn 0.000000 -1.000000 -0.000000
vn 0.000000 -1.000000 -0.000000
vn 0.000000 -1.000000 -0.000000
vn 0.000000 -1.000000 -0.000000
vn 0.000000 -1.000000 -0.000000
vn 0.000000 -1.000000 -0.000000
vn 0.000000 -1.000000 -0.000000
vn 0.850651 0.447214 -0.276392
vn 0.723607 0.447214 -0.525731
vn -0.000000 1.000000 -0.000001
vn 0.525731 0.447214 -0.723607
vn 0.276393 0.447214 -0.850651
vn -0.000000 0.447214 -0.894427
vn -0.276393 0.447214 -0.850651
vn -0.525731 0.447214 -0.723607
vn -0.723607 0.447214 -0.525731
vn -0.850651 0.447214 -0.276393
vn -0.894427 0.447214 0.000000
vn -0.850651 0.447214 0.276393
vn -0.723607 0.447214 0.525731
vn -0.525731 0.447214 0.723607
vn -0.276393 0.447214 0.850651
vn 0.000000 0.447214 0.894427
vn 0.276393 0.447214 0.850651
vn 0.525731 0.447214 0.723607
vn 0.723607 0.447214 0.525731
vn 0.850651 0.447214 0.276393
vn 0.894427 0.447214 0.000001
s off
g pCone1
usemtl initialShadingGroup
f 104/146/144 123/165/145 122/164/146 121/163/147 120/162/148 119/161/149 118/160/150 117/159/151 116/158/152 115/157/153 114/156/154 113/155/155 112/154/156 111/153/157 110/152/158 109/151/159 108/150/160 107/149/161 106/148/162 105/147/163
s 1
f 104/166/164 105/167/165 124/187/166
f 105/167/165 106/168/167 124/187/166
f 106/168/167 107/169/168 124/187/166
f 107/169/168 108/170/169 124/187/166
f 108/170/169 109/171/170 124/187/166
f 109/171/170 110/172/171 124/187/166
f 110/172/171 111/173/172 124/187/166
f 111/173/172 112/174/173 124/187/166
f 112/174/173 113/175/174 124/187/166
f 113/175/174 114/176/175 124/187/166
f 114/176/175 115/177/176 124/187/166
f 115/177/176 116/178/177 124/187/166
f 116/178/177 117/179/178 124/187/166
f 117/179/178 118/180/179 124/187/166
f 118/180/179 119/181/180 124/187/166
f 119/181/180 120/182/181 124/187/166
f 120/182/181 121/183/182 124/187/166
f 121/183/182 122/184/183 124/187/166
f 122/184/183 123/185/184 124/187/166
f 123/185/184 104/186/164 124/187/166
g default
v 0.296634 0.919082 -0.096382
v 0.252332 0.919082 -0.183330
v 0.183330 0.919082 -0.252332
v 0.096382 0.919082 -0.296634
v 0.000000 0.919082 -0.311899
v -0.096382 0.919082 -0.296634
v -0.183330 0.919082 -0.252332
v -0.252332 0.919082 -0.183330
v -0.296634 0.919082 -0.096382
v -0.311899 0.919082 0.000000
v -0.296634 0.919082 0.096382
v -0.252332 0.919082 0.183330
v -0.183330 0.919082 0.252332
v -0.096382 0.919082 0.296634
v -0.000000 0.919082 0.311899
v 0.096382 0.919082 0.296634
v 0.183330 0.919082 0.252332
v 0.252332 0.919082 0.183330
v 0.296634 0.919082 0.096382
v 0.311899 0.919082 0.000000
v 0.000000 1.542881 0.000000
vt 0.737764 0.172746
vt 0.702254 0.103054
vt 0.646946 0.047746
vt 0.577254 0.012236
vt 0.500000 -0.000000
vt 0.422746 0.012236
vt 0.353054 0.047746
vt 0.297746 0.103054
vt 0.262236 0.172746
vt 0.250000 0.250000
vt 0.262236 0.327254
vt 0.297746 0.396946
vt 0.353054 0.452254
vt 0.422746 0.487764
vt 0.500000 0.500000
vt 0.577254 0.487764
vt 0.646946 0.452254
vt 0.702254 0.396946
vt 0.737764 0.327254
vt 0.750000 0.250000
vt 0.250000 0.500000
vt 0.275000 0.500000
vt 0.300000 0.500000
vt 0.325000 0.500000
vt 0.350000 0.500000
vt 0.375000 0.500000
vt 0.400000 0.500000
vt 0.425000 0.500000
vt 0.450000 0.500000
vt 0.475000 0.500000
vt 0.500000 0.500000
vt 0.525000 0.500000
vt 0.550000 0.500000
vt 0.575000 0.500000
vt 0.600000 0.500000
vt 0.625000 0.500000
vt 0.650000 0.500000
vt 0.675000 0.500000
vt 0.700000 0.500000
vt 0.725000 0.500000
vt 0.750000 0.500000
vt 0.500000 1.000000
vn 0.000000 -1.000000 -0.000000
vn 0.000000 -1.000000 -0.000000
vn 0.000000 -1.000000 -0.000000
vn 0.000000 -1.000000 -0.000000
vn 0.000000 -1.000000 -0.000000
vn 0.000000 -1.000000 -0.000000
vn 0.000000 -1.000000 -0.000000
vn 0.000000 -1.000000 -0.000000
vn 0.000000 -1.000000 -0.000000
vn 0.000000 -1.000000 -0.000000
vn 0.000000 -1.000000 -0.000000
vn 0.000000 -1.000000 -0.000000
vn 0.000000 -1.000000 -0.000000
vn 0.000000 -1.000000 -0.000000
vn 0.000000 -1.000000 -0.000000
vn 0.000000 -1.000000 -0.000000
vn 0.000000 -1.000000 -0.000000
vn 0.000000 -1.000000 -0.000000
vn 0.000000 -1.000000 -0.000000
vn 0.000000 -1.000000 -0.000000
vn 0.850651 0.447214 -0.276392
vn 0.723607 0.447214 -0.525731
vn -0.000000 1.000000 -0.000001
vn 0.525731 0.447214 -0.723607
vn 0.276393 0.447214 -0.850651
vn -0.000000 0.447214 -0.894427
vn -0.276393 0.447214 -0.850651
vn -0.525731 0.447214 -0.723607
vn -0.723607 0.447214 -0.525731
vn -0.850651 0.447214 -0.276393
vn -0.894427 0.447214 0.000000
vn -0.850651 0.447214 0.276393
vn -0.723607 0.447214 0.525731
vn -0.525731 0.447214 0.723607
vn -0.276393 0.447214 0.850651
vn 0.000000 0.447214 0.894427
vn 0.276393 0.447214 0.850651
vn 0.525731 0.447214 0.723607
vn 0.723607 0.447214 0.525731
vn 0.850651 0.447214 0.276393
vn 0.894427 0.447214 0.000001
s off
g pCone2
usemtl initialShadingGroup
f 125/188/185 144/207/186 143/206/187 142/205/188 141/204/189 140/203/190 139/202/191 138/201/192 137/200/193 136/199/194 135/198/195 134/197/196 133/196/197 132/195/198 131/194/199 130/193/200 129/192/201 128/191/202 127/190/203 126/189/204
s 1
f 125/208/205 126/209/206 145/229/207
f 126/209/206 127/210/208 145/229/207
f 127/210/208 128/211/209 145/229/207
f 128/211/209 129/212/210 145/229/207
f 129/212/210 130/213/211 145/229/207
f 130/213/211 131/214/212 145/229/207
f 131/214/212 132/215/213 145/229/207
f 132/215/213 133/216/214 145/229/207
f 133/216/214 134/217/215 145/229/207
f 134/217/215 135/218/216 145/229/207
f 135/218/216 136/219/217 145/229/207
f 136/219/217 137/220/218 145/229/207
f 137/220/218 138/221/219 145/229/207
f 138/221/219 139/222/220 145/229/207
f 139/222/220 140/223/221 145/229/207
f 140/223/221 141/224/222 145/229/207
f 141/224/222 142/225/223 145/229/207
f 142/225/223 143/226/224 145/229/207
f 143/226/224 144/227/225 145/229/207
f 144/227/225 125/228/205 145/229/207
