{"accessors":[{"name":"pDisc1_1_positions","componentType":5126,"count":61,"min":[-1,0,-1],"max":[1,0,1],"type":"VEC3","bufferView":0,"byteOffset":0},{"name":"pDisc1_1_normals","componentType":5126,"count":61,"min":[0,1,0],"max":[0,1,0],"type":"VEC3","bufferView":0,"byteOffset":2748},{"name":"pDisc1_1_texcoords","componentType":5126,"count":61,"min":[0,0],"max":[1,1],"type":"VEC2","bufferView":1,"byteOffset":0},{"name":"pDisc1_1_0_indices","componentType":5123,"count":288,"min":[0],"max":[60],"type":"SCALAR","bufferView":2,"byteOffset":0},{"name":"pCylinder1_1_positions","componentType":5126,"count":84,"min":[-0.10700400173664093,0.00012700000661425292,-0.11418099701404572],"max":[0.10700300335884094,0.27844300866127014,0.11418099701404572],"type":"VEC3","bufferView":0,"byteOffset":732},{"name":"pCylinder1_1_normals","componentType":5126,"count":84,"min":[-1,-1,-1],"max":[1,1,1],"type":"VEC3","bufferView":0,"byteOffset":3480},{"name":"pCylinder1_1_texcoords","componentType":5126,"count":84,"min":[0.34375,0],"max":[0.65625,1],"type":"VEC2","bufferView":1,"byteOffset":488},{"name":"pCylinder1_1_0_indices","componentType":5123,"count":240,"min":[0],"max":[83],"type":"SCALAR","bufferView":2,"byteOffset":576},{"name":"pCone1_1_positions","componentType":5126,"count":42,"min":[-0.5364530086517334,0.24338099360466003,-0.5364530086517334],"max":[0.5364530086517334,1.3162870407104492,0.5364530086517334],"type":"VEC3","bufferView":0,"byteOffset":1740},{"name":"pCone1_1_normals","componentType":5126,"count":42,"min":[-0.8944270014762878,-1,-0.8944270014762878],"max":[0.8944270014762878,1,0.8944270014762878],"type":"VEC3","bufferView":0,"byteOffset":4488},{"name":"pCone1_1_texcoords","componentType":5126,"count":42,"min":[0.25,0],"max":[0.75,1],"type":"VEC2","bufferView":1,"byteOffset":1160},{"name":"pCone1_1_0_indices","componentType":5123,"count":114,"min":[0],"max":[41],"type":"SCALAR","bufferView":2,"byteOffset":1056},{"name":"pCone2_1_positions","componentType":5126,"count":42,"min":[-0.31189900636672974,0.91908198595047,-0.31189900636672974],"max":[0.31189900636672974,1.5428810119628906,0.31189900636672974],"type":"VEC3","bufferView":0,"byteOffset":2244},{"name":"pCone2_1_normals","componentType":5126,"count":42,"min":[-0.8944270014762878,-1,-0.8944270014762878],"max":[0.8944270014762878,1,0.8944270014762878],"type":"VEC3","bufferView":0,"byteOffset":4992},{"name":"pCone2_1_texcoords","componentType":5126,"count":42,"min":[0.25,0],"max":[0.75,1],"type":"VEC2","bufferView":1,"byteOffset":1496},{"name":"pCone2_1_0_indices","componentType":5123,"count":114,"min":[0],"max":[41],"type":"SCALAR","bufferView":2,"byteOffset":1284}],"asset":{"generator":"obj2gltf","version":"2.0"},"buffers":[{"name":"Christmas Tree","byteLength":8840,"uri":"data:application/octet-stream;base64,"}],"bufferViews":[{"name":"bufferView_0","buffer":0,"byteLength":5496,"byteOffset":0,"byteStride":12,"target":34962},{"name":"bufferView_1","buffer":0,"byteLength":1832,"byteOffset":5496,"byteStride":8,"target":34962},{"name":"bufferView_2","buffer":0,"byteLength":1512,"byteOffset":7328,"target":34963}],"materials":[{"name":"lambert2SG","pbrMetallicRoughness":{"baseColorFactor":[0,0,0,1],"metallicFactor":0,"roughnessFactor":1},"emissiveFactor":[0,0,0],"alphaMode":"OPAQUE","doubleSided":false},{"name":"lambert3SG","pbrMetallicRoughness":{"baseColorFactor":[0,0,0,1],"metallicFactor":0,"roughnessFactor":1},"emissiveFactor":[0,0,0],"alphaMode":"OPAQUE","doubleSided":false},{"name":"initialShadingGroup","pbrMetallicRoughness":{"baseColorFactor":[0,1,0,1],"metallicFactor":0,"roughnessFactor":1},"emissiveFactor":[0,0,0],"alphaMode":"OPAQUE","doubleSided":false}],"meshes":[{"name":"pDisc1_1","primitives":[{"attributes":{"POSITION":0,"NORMAL":1,"TEXCOORD_0":2},"indices":3,"material":0,"mode":4}]},{"name":"pCylinder1_1","primitives":[{"attributes":{"POSITION":4,"NORMAL":5,"TEXCOORD_0":6},"indices":7,"material":1,"mode":4}]},{"name":"pCone1_1","primitives":[{"attributes":{"POSITION":8,"NORMAL":9,"TEXCOORD_0":10},"indices":11,"material":2,"mode":4}]},{"name":"pCone2_1","primitives":[{"attributes":{"POSITION":12,"NORMAL":13,"TEXCOORD_0":14},"indices":15,"material":2,"mode":4}]}],"nodes":[{"name":"pDisc1","mesh":0},{"name":"pCylinder1","mesh":1},{"name":"pCone1","mesh":2},{"name":"pCone2","mesh":3}],"scene":0,"scenes":[{"nodes":[0,1,2,3]}]}
