{"accessors":[{"name":"Lamborghini_Aventador:Body_1_positions","componentType":5126,"count":15326,"min":[-115.10138702392578,12.992294311523438,-243.03543090820312],"max":[115.10138702392578,117.59369659423828,246.40521240234375],"type":"VEC3","bufferView":0,"byteOffset":0},{"name":"Lamborghini_Aventador:Body_1_normals","componentType":5126,"count":15326,"min":[-1,-1,-1],"max":[1,1,1],"type":"VEC3","bufferView":0,"byteOffset":263472},{"name":"Lamborghini_Aventador:Body_1_texcoords","componentType":5126,"count":15326,"min":[0.0003910000086762011,0.0025059999898076057],"max":[0.99863600730896,0.9985089898109436],"type":"VEC2","bufferView":1,"byteOffset":0},{"name":"Lamborghini_Aventador:Body_1_0_indices","componentType":5123,"count":21804,"min":[0],"max":[15325],"type":"SCALAR","bufferView":2,"byteOffset":0},{"name":"Lamborghini_Aventador:Glass_1_positions","componentType":5126,"count":268,"min":[-87.89025115966797,52.84211730957031,-59.73163604736328],"max":[87.89025115966797,110.94427490234375,215.86253356933594],"type":"VEC3","bufferView":0,"byteOffset":183912},{"name":"Lamborghini_Aventador:Glass_1_normals","componentType":5126,"count":268,"min":[-0.8290500044822693,0.22822199761867523,-0.07045300304889679],"max":[0.8290500044822693,0.9675639867782593,0.912784993648529],"type":"VEC3","bufferView":0,"byteOffset":447384},{"name":"Lamborghini_Aventador:Glass_1_texcoords","componentType":5126,"count":268,"min":[0.059484001249074936,0.477524995803833],"max":[0.9966380000114441,0.8408899903297424],"type":"VEC2","bufferView":1,"byteOffset":122608},{"name":"Lamborghini_Aventador:Glass_1_0_indices","componentType":5123,"count":384,"min":[0],"max":[267],"type":"SCALAR","bufferView":2,"byteOffset":43608},{"name":"Lamborghini_Aventador:Wheel_FL_1_positions","componentType":5126,"count":1526,"min":[70.17832946777344,0.04035399854183197,93.61392211914062],"max":[100.67977142333984,69.15760803222656,162.7312774658203],"type":"VEC3","bufferView":0,"byteOffset":187128},{"name":"Lamborghini_Aventador:Wheel_FL_1_normals","componentType":5126,"count":1526,"min":[-1,-1,-1],"max":[1,1,1],"type":"VEC3","bufferView":0,"byteOffset":450600},{"name":"Lamborghini_Aventador:Wheel_FL_1_texcoords","componentType":5126,"count":1526,"min":[0.6901080012321472,0.0033710000570863485],"max":[0.9976580142974854,0.4749259948730469],"type":"VEC2","bufferView":1,"byteOffset":124752},{"name":"Lamborghini_Aventador:Wheel_FL_1_0_indices","componentType":5123,"count":2142,"min":[0],"max":[1525],"type":"SCALAR","bufferView":2,"byteOffset":44376},{"name":"Lamborghini_Aventador:Wheel_FR_1_positions","componentType":5126,"count":1526,"min":[-100.67977142333984,0.04035399854183197,93.61392211914062],"max":[-70.17832946777344,69.15760803222656,162.7312774658203],"type":"VEC3","bufferView":0,"byteOffset":205440},{"name":"Lamborghini_Aventador:Wheel_FR_1_normals","componentType":5126,"count":1526,"min":[-1,-1,-1],"max":[1,1,1],"type":"VEC3","bufferView":0,"byteOffset":468912},{"name":"Lamborghini_Aventador:Wheel_FR_1_texcoords","componentType":5126,"count":1526,"min":[0.6901080012321472,0.0033710000570863485],"max":[0.9976580142974854,0.4749259948730469],"type":"VEC2","bufferView":1,"byteOffset":136960},{"name":"Lamborghini_Aventador:Wheel_FR_1_0_indices","componentType":5123,"count":2142,"min":[0],"max":[1525],"type":"SCALAR","bufferView":2,"byteOffset":48660},{"name":"Lamborghini_Aventador:Wheel_RL_1_positions","componentType":5126,"count":1526,"min":[69.37641906738281,0.04035399854183197,-183.1101531982422],"max":[101.48168182373047,72.79191589355469,-110.35848999023438],"type":"VEC3","bufferView":0,"byteOffset":223752},{"name":"Lamborghini_Aventador:Wheel_RL_1_normals","componentType":5126,"count":1526,"min":[-1,-1,-1],"max":[1,1,1],"type":"VEC3","bufferView":0,"byteOffset":487224},{"name":"Lamborghini_Aventador:Wheel_RL_1_texcoords","componentType":5126,"count":1526,"min":[0.6901080012321472,0.0033710000570863485],"max":[0.9976580142974854,0.4749259948730469],"type":"VEC2","bufferView":1,"byteOffset":149168},{"name":"Lamborghini_Aventador:Wheel_RL_1_0_indices","componentType":5123,"count":2142,"min":[0],"max":[1525],"type":"SCALAR","bufferView":2,"byteOffset":52944},{"name":"Lamborghini_Aventador:Wheel_RR_1_positions","componentType":5126,"count":1526,"min":[-101.481689453125,0.04035399854183197,-183.1101531982422],"max":[-69.37641906738281,72.79191589355469,-110.35848999023438],"type":"VEC3","bufferView":0,"byteOffset":242064},{"name":"Lamborghini_Aventador:Wheel_RR_1_normals","componentType":5126,"count":1526,"min":[-1,-1,-1],"max":[1,1,1],"type":"VEC3","bufferView":0,"byteOffset":505536},{"name":"Lamborghini_Aventador:Wheel_RR_1_texcoords","componentType":5126,"count":1526,"min":[0.6901080012321472,0.0033710000570863485],"max":[0.9976580142974854,0.4749259948730469],"type":"VEC2","bufferView":1,"byteOffset":161376},{"name":"Lamborghini_Aventador:Wheel_RR_1_0_indices","componentType":5123,"count":2142,"min":[0],"max":[1525],"type":"SCALAR","bufferView":2,"byteOffset":57228},{"name":"Lamborghini_Aventador:Collider_1_positions","componentType":5126,"count":258,"min":[-104.1214828491211,13.092779159545898,-242.710693359375],"max":[104.1214828491211,117.73312377929688,246.76663208007812],"type":"VEC3","bufferView":0,"byteOffset":260376},{"name":"Lamborghini_Aventador:Collider_1_normals","componentType":5126,"count":258,"min":[-1,-1,-0.9882090091705322],"max":[1,0.9993020296096802,0.9678760170936584],"type":"VEC3","bufferView":0,"byteOffset":523848},{"name":"Lamborghini_Aventador:Collider_1_texcoords","componentType":5126,"count":258,"min":[0.5,0.020343000069260597],"max":[0.875,1],"type":"VEC2","bufferView":1,"byteOffset":173584},{"name":"Lamborghini_Aventador:Collider_1_0_indices","componentType":5123,"count":366,"min":[0],"max":[257],"type":"SCALAR","bufferView":2,"byteOffset":61512}],"asset":{"generator":"obj2gltf","version":"2.0"},"buffers":[{"name":"Lamborghini_Aventador","byteLength":2219224,"uri":"data:application/octet-stream;base64,"}],"bufferViews":[{"name":"bufferView_0","buffer":0,"byteLength":526944,"byteOffset":0,"byteStride":12,"target":34962},{"name":"bufferView_1","buffer":0,"byteLength":175648,"byteOffset":526944,"byteStride":8,"target":34962},{"name":"bufferView_2","buffer":0,"byteLength":62244,"byteOffset":702592,"target":34963},{"buffer":0,"byteOffset":764836,"byteLength":1454385}],"images":[{"name":"Lamborginhi Aventador_diffuse","mimeType":"image/jpeg","bufferView":3}],"materials":[{"name":"Lamborghini_Aventador:BodySG","pbrMetallicRoughness":{"baseColorTexture":{"index":0},"baseColorFactor":[1,1,1,1],"metallicFactor":0,"roughnessFactor":0.982},"emissiveFactor":[0,0,0],"alphaMode":"OPAQUE","doubleSided":false},{"name":"Lamborghini_Aventador:GlassSG","pbrMetallicRoughness":{"baseColorFactor":[0,0,0,1],"metallicFactor":0,"roughnessFactor":0.99569},"emissiveFactor":[0,0,0],"alphaMode":"OPAQUE","doubleSided":false},{"name":"Lamborghini_Aventador:ColliderSG","pbrMetallicRoughness":{"baseColorFactor":[0.5,0.5,0.5,1],"metallicFactor":0,"roughnessFactor":1},"emissiveFactor":[0,0,0],"alphaMode":"OPAQUE","doubleSided":false}],"meshes":[{"name":"Lamborghini_Aventador:Body_1","primitives":[{"attributes":{"POSITION":0,"NORMAL":1,"TEXCOORD_0":2},"indices":3,"material":0,"mode":4}]},{"name":"Lamborghini_Aventador:Glass_1","primitives":[{"attributes":{"POSITION":4,"NORMAL":5,"TEXCOORD_0":6},"indices":7,"material":1,"mode":4}]},{"name":"Lamborghini_Aventador:Wheel_FL_1","primitives":[{"attributes":{"POSITION":8,"NORMAL":9,"TEXCOORD_0":10},"indices":11,"material":0,"mode":4}]},{"name":"Lamborghini_Aventador:Wheel_FR_1","primitives":[{"attributes":{"POSITION":12,"NORMAL":13,"TEXCOORD_0":14},"indices":15,"material":0,"mode":4}]},{"name":"Lamborghini_Aventador:Wheel_RL_1","primitives":[{"attributes":{"POSITION":16,"NORMAL":17,"TEXCOORD_0":18},"indices":19,"material":0,"mode":4}]},{"name":"Lamborghini_Aventador:Wheel_RR_1","primitives":[{"attributes":{"POSITION":20,"NORMAL":21,"TEXCOORD_0":22},"indices":23,"material":0,"mode":4}]},{"name":"Lamborghini_Aventador:Collider_1","primitives":[{"attributes":{"POSITION":24,"NORMAL":25,"TEXCOORD_0":26},"indices":27,"material":2,"mode":4}]}],"nodes":[{"name":"Lamborghini_Aventador:Body","mesh":0},{"name":"Lamborghini_Aventador:Glass","mesh":1},{"name":"Lamborghini_Aventador:Wheel_FL","mesh":2},{"name":"Lamborghini_Aventador:Wheel_FR","mesh":3},{"name":"Lamborghini_Aventador:Wheel_RL","mesh":4},{"name":"Lamborghini_Aventador:Wheel_RR","mesh":5},{"name":"Lamborghini_Aventador:Collider","mesh":6}],"samplers":[{"magFilter":9729,"minFilter":9986,"wrapS":10497,"wrapT":10497}],"scene":0,"scenes":[{"nodes":[0,1,2,3,4,5,6]}],"textures":[{"name":"Lamborginhi Aventador_diffuse","sampler":0,"source":0}]}
